<?xml version="1.0" encoding="utf-8"?>
<!-- Generator: Adobe Illustrator 24.2.3, SVG Export Plug-In . SVG Version: 6.00 Build 0)  -->
<svg version="1.1" id="Capa_1" xmlns="http://www.w3.org/2000/svg" xmlns:xlink="http://www.w3.org/1999/xlink" x="0px" y="0px"
	 viewBox="0 0 1920 1080" style="enable-background:new 0 0 1920 1080;" xml:space="preserve">
<style type="text/css">
	.st0{clip-path:url(#SVGID_2_);fill:#B2DEED;}
	.st1{clip-path:url(#SVGID_2_);fill:#E1F2FA;}
	.st2{clip-path:url(#SVGID_4_);fill:#B2DEED;}
	.st3{clip-path:url(#SVGID_4_);fill:#E1F2FA;}
	.st4{fill:#066AB1;}
	.st5{fill:none;}
</style>
<g>
	<defs>
		<rect id="SVGID_1_" x="1.1" y="2.56" width="1918.9" height="1074.01"/>
	</defs>
	<clipPath id="SVGID_2_">
		<use xlink:href="#SVGID_1_"  style="overflow:visible;"/>
	</clipPath>
	<path class="st0" d="M435.72,883.73c6.21,0,12.35,0.15,18.41,0.44c88.64,4.32,164.97,39.09,240.22,109.41
		c163.92,31.94,297.57,112.02,397.26,238.03c59.26,74.9,137.09,136.05,231.31,181.76l-0.35,0.46l-0.12,0.53
		c-62.01-9.24-122.84-24.86-180.79-46.44c-60.18-22.41-119.61-52.1-176.64-88.25c-59.45-37.69-107.99-97.04-159.39-159.88
		c-35.04-42.83-71.26-87.12-112.02-125.25c-125.91-24.48-265.15-20.05-413.87,13.16c-13.44,3-26.59,5.96-39.48,8.85
		c-103.51,23.26-192.89,43.35-280.47,52.98l-0.09-0.53l-0.37-0.45c31.07-15.82,63.27-33.65,95.7-53
		c81.2-48.47,156.89-83.95,224.95-105.46C335.38,892.57,387.68,883.73,435.72,883.73 M692.1,993.15
		c-74.6-69.33-150.29-103.62-238.05-107.91c-52.78-2.58-111.18,6.12-173.58,25.84C212.51,932.57,136.93,968,55.83,1016.41
		c-31.56,18.83-62.89,36.23-93.19,51.73c86.51-9.75,174.98-29.63,277.23-52.61c12.89-2.9,26.04-5.85,39.49-8.85
		C427.59,973.57,566.44,969.02,692.1,993.15 M1319.07,1412.76c-92.99-45.63-169.9-106.37-228.61-180.57
		c-99.13-125.3-231.89-205.09-394.62-237.2c40.32,37.92,76.21,81.79,110.92,124.23c51.33,62.76,99.82,122.04,159.1,159.62
		c56.95,36.1,116.29,65.75,176.37,88.12C1198.94,1388.07,1258.43,1403.48,1319.07,1412.76"/>
	<path class="st0" d="M1759.06,355.77c-6.21,0-12.35-0.15-18.41-0.44c-88.64-4.32-164.97-39.09-240.22-109.41
		c-163.92-31.94-297.57-112.02-397.26-238.03c-59.26-74.89-137.08-136.05-231.31-181.76l0.35-0.46l0.12-0.53
		c62.01,9.23,122.84,24.86,180.79,46.43c60.18,22.41,119.61,52.1,176.64,88.25c59.44,37.7,107.99,97.04,159.39,159.88
		c35.03,42.83,71.26,87.12,112.02,125.25c125.91,24.48,265.15,20.05,413.87-13.16c13.44-3,26.59-5.96,39.48-8.85
		c103.5-23.26,192.89-43.35,280.47-52.98l0.09,0.53l0.37,0.45c-31.07,15.82-63.27,33.65-95.7,53
		c-81.2,48.47-156.89,83.95-224.95,105.46C1859.39,346.93,1807.09,355.77,1759.06,355.77 M1502.68,246.35
		c74.6,69.33,150.29,103.62,238.05,107.91c52.78,2.58,111.18-6.12,173.58-25.84c67.95-21.48,143.53-56.91,224.64-105.32
		c31.56-18.83,62.89-36.22,93.19-51.72c-86.51,9.75-174.98,29.63-277.23,52.61c-12.89,2.9-26.04,5.85-39.49,8.86
		C1767.19,265.93,1628.33,270.48,1502.68,246.35 M875.71-173.26c92.99,45.63,169.9,106.37,228.61,180.57
		c99.13,125.3,231.89,205.09,394.62,237.2c-40.32-37.92-76.2-81.79-110.92-124.23c-51.34-62.76-99.82-122.03-159.1-159.62
		c-56.95-36.1-116.29-65.75-176.37-88.12C995.83-148.57,936.35-163.98,875.71-173.26"/>
	<path class="st1" d="M385.59,632.72c58.28,0,117.94,6.36,178.44,19.07c123.57,25.96,251.92,78.28,383.3,156.12
		c62.51,15.62,126.28,34.61,191.08,56.9c81.35,27.99,173.64,40.9,274.29,38.38c80.54-2.02,166.59-13.88,255.75-35.24
		c151.83-36.37,261.45-88.4,262.54-88.93l1.07-0.51l-12.57,288.38l-0.43,0.12c-1.1,0.31-112.21,31.16-265.73,28.83
		c-90.19-1.37-177.18-13.74-258.56-36.77c-101.72-28.79-194.91-74.41-276.96-135.6c-57.5-42.88-114.59-81.1-171.1-114.6
		c-114.63-28.64-225.02-45.97-329.89-51.72c-129.64-7.11-251.15,3.35-361.15,31.1c-97.87,24.69-168.32,58.78-210.19,83.04
		c-45.37,26.28-67.88,46.98-68.1,47.19l-1.2,1.11v-167.5l0.26-0.16c92.33-57.61,190.89-94.78,292.93-110.46
		C307.34,635.63,346.15,632.72,385.59,632.72 M943.42,806.93c-130.16-76.74-257.31-128.4-379.74-154.11
		c-101.24-21.27-200.17-24.73-294.06-10.3c-101.73,15.64-200,52.67-292.09,110.09v164.11c5.21-4.57,27.45-23.3,67.07-46.26
		c41.94-24.3,112.52-58.46,210.56-83.21c110.17-27.81,231.86-38.3,361.68-31.18C720.7,761.77,829.99,778.81,943.42,806.93
		 M1918.18,1066.12l12.45-285.67c-11.73,5.48-117.82,54.04-261.78,88.53c-89.28,21.39-175.44,33.26-256.1,35.28
		c-100.86,2.53-193.33-10.41-274.87-38.46c-63.49-21.84-125.97-40.5-187.26-55.94c55.55,33.08,111.63,70.71,168.12,112.83
		c81.91,61.08,174.92,106.62,276.46,135.36c81.23,22.99,168.07,35.35,258.11,36.71C1801.78,1097.03,1910.43,1068.23,1918.18,1066.12
		"/>
	<path class="st1" d="M259.99,246.37C156.96,230.53,57.45,193.01-35.78,134.84l-0.26-0.16V-34.45l1.21,1.12
		c0.22,0.21,22.96,21.11,68.76,47.65c42.27,24.49,113.41,58.91,212.23,83.84c111.07,28.02,233.76,38.59,364.65,31.41
		c105.88-5.81,217.35-23.31,333.09-52.23c57.06-33.82,114.7-72.41,172.76-115.71c82.85-61.78,176.94-107.84,279.65-136.91
		c82.17-23.25,170-35.74,261.06-37.12c155.01-2.35,267.19,28.79,268.31,29.11l0.44,0.12L1938.8,108l-1.08-0.52
		c-1.1-0.53-111.79-53.06-265.08-89.79c-90.03-21.57-176.91-33.54-258.23-35.58c-101.62-2.55-194.8,10.48-276.94,38.75
		c-65.43,22.51-129.81,41.68-192.93,57.45c-132.66,78.6-262.25,131.43-387.02,157.63c-61.08,12.83-121.33,19.26-180.17,19.25
		C337.52,255.21,298.33,252.26,259.99,246.37"/>
	<path class="st1" d="M259.99,1224.47c-103.03-15.83-202.54-53.36-295.77-111.53l-0.26-0.16V943.65l1.21,1.12
		c0.22,0.21,22.96,21.11,68.76,47.65c42.27,24.49,113.41,58.91,212.23,83.84c111.07,28.02,233.76,38.59,364.65,31.41
		c105.88-5.81,217.35-23.31,333.09-52.23c57.06-33.82,114.7-72.41,172.76-115.7c82.85-61.78,176.94-107.84,279.65-136.91
		c82.17-23.25,170-35.75,261.06-37.12c155.01-2.35,267.19,28.79,268.31,29.11l0.44,0.12l12.69,291.17l-1.08-0.52
		c-1.1-0.53-111.79-53.06-265.08-89.79c-90.03-21.57-176.91-33.54-258.23-35.58c-101.62-2.55-194.8,10.49-276.94,38.75
		c-65.43,22.51-129.81,41.68-192.93,57.45c-132.66,78.6-262.25,131.43-387.02,157.64c-61.08,12.83-121.33,19.26-180.17,19.25
		C337.52,1233.3,298.33,1230.36,259.99,1224.47"/>
</g>
<rect y="0" class="st5" width="1920" height="1080"/>
<rect y="0" class="st5" width="1920" height="1080"/>
</svg>
