<?xml version="1.0" encoding="utf-8"?>
<!-- Generator: Adobe Illustrator 25.0.0, SVG Export Plug-In . SVG Version: 6.00 Build 0)  -->
<svg version="1.1" id="Capa_1" xmlns="http://www.w3.org/2000/svg" xmlns:xlink="http://www.w3.org/1999/xlink" x="0px" y="0px"
	 viewBox="0 0 225 65.6" style="enable-background:new 0 0 225 65.6;" xml:space="preserve">
<style type="text/css">
	.st0{clip-path:url(#SVGID_2_);}
	.st1{fill:#BFE9FF;}
	.st2{display:none;fill:#64AFE0;}
	.st3{fill:#64AFE0;}
	.st4{fill:#5289C7;}
	.st5{fill:#FFFFFF;}
	.st6{fill:#497EBB;}
	.st7{fill:#4676A5;}
	.st8{fill:#3B66A9;}
</style>
<g>
	<defs>
		<rect id="SVGID_1_" x="-99" y="-17.2" width="1906" height="2438"/>
	</defs>
	<clipPath id="SVGID_2_">
		<use xlink:href="#SVGID_1_"  style="overflow:visible;"/>
	</clipPath>
	<g class="st0">
		<path class="st1" d="M1745.2,139.9c-10.2,2.4-20.4,4.5-30.6,6.2c-148.3,25.9-289.9-11.6-445.7-117.9
			C983.9,30.1,727.2-72.5,506-276.5C374.5-397.8,218.6-485.4,42.5-537.1l0.4-1v-1.1c106.8-6.1,214,0.5,319.3,19.6
			c109.4,19.9,220.8,54.1,331.2,101.7c115.1,49.6,221.9,145.1,335,246.2c77.1,68.9,156.8,140.2,241.2,197.8
			c218.8-1.5,446.7-63.7,677.3-184.9c20.8-11,41.2-21.7,61.2-32.3c160.4-84.7,298.9-157.8,439.2-210.1l0.4,1l0.8,0.7
			c-44.2,42.4-89.3,89.1-134.1,138.9c-112.3,124.5-221.2,222-323.9,289.7C1906.8,84.2,1824.5,121.4,1745.2,139.9z M1272.7,28.3
			c154.3,104.6,294.7,141.4,441.5,115.8c88.3-15.4,180.8-54.7,274.9-116.7c102.5-67.5,211.3-164.9,323.5-289.3
			c43.6-48.4,87.5-94,130.6-135.5c-138.4,52.1-275.5,124.5-434,208.1c-20,10.6-40.4,21.3-61.2,32.3
			C1718.2-36.1,1491,26.2,1272.7,28.3z M49.1-537.4c174,51.9,328.3,139.2,458.6,259.3c220,202.9,475,305.2,758.1,304.2
			c-83.6-57.4-162.6-128-239-196.3C913.8-271,807.1-366.4,692.4-415.9c-110.2-47.5-221.5-81.7-330.8-101.5
			C258.6-536.2,153.7-542.9,49.1-537.4z"/>
	</g>
</g>
<rect x="-155.1" y="-68.4" class="st2" width="1908" height="176"/>
<path class="st3" d="M65.2,35.9c1.1,2.7,1.8,5.5,2.1,8.3c0.1,1.4,0.1,2.8-0.1,4.2c-0.6,1.2-1.3,2.4-2.1,3.6c0.1-1,0.1-2,0-3
	c-0.2-3-0.8-6-1.8-8.8c-1.5-5.1-2.7-10.3-3.5-15.6l0.9,1.6C62.4,29.2,63.5,32.1,65.2,35.9"/>
<path class="st3" d="M55.9,42.1c3.4,6.2,4.1,13.3-1.4,14.5c-0.8,0.2-1.6,0-2.2-0.4C56.5,55,57.5,49.3,55.9,42.1"/>
<path class="st4" d="M55.9,42.1c-1-1.8-2.2-3.5-3.7-5.1c-3.4-3.5-6.1-7.7-7.8-12.3c-1.2-3-2.3-5.8-3.7-8.5
	C48.2,23.2,53.5,32.2,55.9,42.1"/>
<path class="st4" d="M58.6,18c-1.1-4.5-3.2-8.8-6.1-12.4C50.3,3,49.2,2,46.8,1.5c-1.7-0.4-4.1,0.8-4.1,0.8s0.8,0.6,1.6,1.2
	c1,0.9,2,1.8,3.1,2.7c2.8,2.9,5.3,6.1,7.5,9.5c1.9,3,3.4,5.7,5.1,8.8C59.4,21.8,59,19.4,58.6,18"/>
<path class="st5" d="M70.4,30.9C69.2,20.3,62.7,11,53.1,6.3c2.6,3.5,4.5,7.4,5.5,11.7l0,0c0.1,0.4,0.2,0.9,0.3,1.5s0.3,1.3,0.4,2.1
	c0,0.1,0,0.3,0.1,0.5s0.1,0.4,0.1,0.6c0.1,0.6,0.2,1.3,0.3,1.9l0.9,1.6c1.7,3.1,2.8,5.9,4.5,9.8c1.1,2.7,1.8,5.5,2.1,8.3
	c0.1,1.4,0.1,2.8-0.1,4.2C70,43,71.1,36.9,70.4,30.9"/>
<path class="st6" d="M48.8,64.1c-2.2-2-4-5.1-6-8.1c3.3,2.7,6.3,5.6,9.1,7C50.9,63.4,49.8,63.8,48.8,64.1"/>
<path class="st5" d="M42.8,56c1.9,3,3.8,6.1,6,8.1c-2,0.6-4,1-6,1.3c-9.1,1-18.2-2-24.8-8.2c1.8-2.1,3.5-4.2,5.2-6
	c2-0.8,4.1-1.2,6.2-1.3C34.6,49.9,39.7,51.5,42.8,56"/>
<path class="st3" d="M30.6,46.5c5.6-0.2,9.1,4.6,12.2,9.5c-3-4.3-8.3-6.2-13.4-6.2c-2.1,0.1-4.2,0.5-6.2,1.3
	C25.7,48.5,28.1,46.6,30.6,46.5"/>
<path class="st4" d="M25,37.8c1.4-0.7,2.9-1.2,4.4-1.6c14.6-3.5,17.2,16.7,22.8,20l0,0c-5.9,1.5-9.7-19.3-24.3-18.7
	C27,37.5,26,37.6,25,37.8"/>
<path class="st4" d="M15.6,54.6c-1.5,0.7-4,2.2-4,2.2c1.2,1.5,3.7,2.8,6.5,0.4c1.8-2.1,3.5-4.2,5.2-6C20.8,52.1,18.4,53.3,15.6,54.6
	"/>
<path class="st7" d="M8.9,41.4C6,41.9,3,42.1,0,42.1c0,0.1,1.4,5.8,10,3c6.5-2.2,10.8-5.2,15-7.2C20.2,38.6,16.1,40.4,8.9,41.4"/>
<path class="st5" d="M55.9,42.1c-1-1.8-2.2-3.5-3.7-5.1c-3.4-3.5-6.1-7.7-7.8-12.3c-1.2-3-2.3-5.8-3.7-8.5l-0.4-0.4L40,15.5
	l-0.4-0.3h0c-4.1-3.4-8.4-6.5-13-9.3c-12.4,5.5-19.8,18.5-18.3,32c0.1,1.2,0.3,2.4,0.6,3.6c7.1-1.1,11.2-2.9,16.1-3.6
	c1.4-0.7,2.9-1.2,4.4-1.6c14.6-3.5,17.2,16.7,22.8,20C56.5,55.1,57.5,49.3,55.9,42.1"/>
<path class="st7" d="M39.6,15.1L39.6,15.1L39.6,15.1l0.2,0.1c0.3,0.3,0.7,0.6,1,0.9c-1.8-4-4.3-7.6-7.3-10.8c-0.5-0.5-1-0.9-1.6-1.4
	c-2.4-1.9-6.1-4-9.2-4c-2.5-0.1-5.3,2-5.3,2c3.2,0.8,6.3,2.1,9.1,3.9C31.2,8.6,35.5,11.8,39.6,15.1"/>
<path class="st8" d="M88.1,13.8c-1.6,0.1-3.2,0.6-4.5,1.5l-0.1-1.2l0,0c-1.7,0.3-3.3,1-4.7,2l0,0v18.3h5V19.6
	c0.9-1.1,2.3-1.8,3.8-1.7c2.8,0,4,1.8,4,5.5v10.9h5V23.4C96.7,17.7,94.4,13.8,88.1,13.8"/>
<path class="st8" d="M216.4,13.8c-1.6,0.1-3.2,0.6-4.5,1.5l-0.1-1.2l0,0c-1.7,0.3-3.3,1-4.7,2l0,0v18.3h5V19.6
	c0.9-1.2,2.4-1.8,3.8-1.7c2.8,0,4,1.8,4,5.5v10.9h5V23.4C225,17.7,222.7,13.8,216.4,13.8"/>
<path class="st8" d="M134.2,34.3L134.2,34.3c1.7-0.3,3.3-1,4.7-2l0,0V14.1h-5v14.8c-0.9,1.1-2.3,1.8-3.8,1.7c-2.8,0-4-1.8-4-5.6
	V14.1h-5V25c0,5.7,2.3,9.8,8.6,9.8c1.6-0.1,3.2-0.6,4.5-1.6L134.2,34.3z"/>
<path class="st8" d="M178.1,34.3L178.1,34.3c1.7-0.3,3.3-1,4.7-2l0,0V14.1h-5v14.8c-0.9,1.1-2.3,1.8-3.8,1.7c-2.8,0-4-1.8-4-5.6
	V14.1h-5V25c0,5.7,2.3,9.8,8.6,9.8c1.6-0.1,3.2-0.6,4.5-1.6L178.1,34.3z"/>
<path class="st8" d="M161.7,16.1L161.7,16.1c-1.3-0.9-2.8-1.6-4.4-1.9l-0.4,1.1c-1.5-1-3.2-1.6-5-1.5c-6.5,0-9.9,4.8-9.9,10.5
	s3.4,10.5,9.9,10.5c1.7,0.1,3.3-0.4,4.7-1.4v7.9h5 M152.2,30.6c-3.2,0-5.1-2.6-5.1-6.4s1.9-6.4,5.1-6.4s4.7,2.6,4.7,6.4
	S155.4,30.6,152.2,30.6"/>
<path class="st8" d="M198.9,4l-7.5,3.6v3l7-2.3C198.8,6.9,199,5.5,198.9,4"/>
<path class="st8" d="M203.3,29c-1.9,1-4,1.5-6.1,1.6c-3.1,0.1-5.7-2.2-6-5.3h13.1c0.2-0.9,0.3-1.8,0.3-2.8c0-5.4-3.8-8.8-8.9-8.8
	c-6.2,0-9.7,4.9-9.7,10.5s3.6,10.5,11,10.5c2,0,4-0.4,5.9-1.2C203.2,32,203.4,30.5,203.3,29 M195.8,17.9c2.7,0,3.6,2.2,3.6,4h-8.2
	C191.8,19.6,193.2,17.9,195.8,17.9"/>
<path class="st8" d="M117,29c-1.9,1-4,1.5-6.1,1.6c-3.1,0.1-5.7-2.2-6-5.3H118c0.2-0.9,0.3-1.8,0.3-2.8c0-5.4-3.8-8.8-8.9-8.8
	c-6.2,0-9.7,4.9-9.7,10.5s3.7,10.5,11,10.5c2,0,4-0.4,5.9-1.2C117,32,117.1,30.5,117,29 M109.5,17.9c2.7,0,3.7,2.2,3.7,4H105
	C105.5,19.6,106.9,17.9,109.5,17.9"/>
<path class="st5" d="M88.1,13.8c-1.6,0.1-3.2,0.6-4.5,1.5l-0.1-1.2l0,0c-1.7,0.3-3.3,1-4.7,2l0,0v18.3h5V19.6
	c0.9-1.1,2.3-1.8,3.8-1.7c2.8,0,4,1.8,4,5.5v10.9h5V23.4C96.7,17.7,94.4,13.8,88.1,13.8"/>
<path class="st5" d="M216.4,13.8c-1.6,0.1-3.2,0.6-4.5,1.5l-0.1-1.2l0,0c-1.7,0.3-3.3,1-4.7,2l0,0v18.3h5V19.6
	c0.9-1.2,2.4-1.8,3.8-1.7c2.8,0,4,1.8,4,5.5v10.9h5V23.4C225,17.7,222.7,13.8,216.4,13.8"/>
<path class="st5" d="M134.2,34.3L134.2,34.3c1.7-0.3,3.3-1,4.7-2l0,0V14.1h-5v14.8c-0.9,1.1-2.3,1.8-3.8,1.7c-2.8,0-4-1.8-4-5.6
	V14.1h-5V25c0,5.7,2.3,9.8,8.6,9.8c1.6-0.1,3.2-0.6,4.5-1.6L134.2,34.3z"/>
<path class="st5" d="M178.1,34.3L178.1,34.3c1.7-0.3,3.3-1,4.7-2l0,0V14.1h-5v14.8c-0.9,1.1-2.3,1.8-3.8,1.7c-2.8,0-4-1.8-4-5.6
	V14.1h-5V25c0,5.7,2.3,9.8,8.6,9.8c1.6-0.1,3.2-0.6,4.5-1.6L178.1,34.3z"/>
<path class="st5" d="M161.7,16.1L161.7,16.1c-1.3-0.9-2.8-1.6-4.4-1.9l-0.4,1.1c-1.5-1-3.2-1.6-5-1.5c-6.5,0-9.9,4.8-9.9,10.5
	s3.4,10.5,9.9,10.5c1.7,0.1,3.3-0.4,4.7-1.4v7.9h5 M152.2,30.6c-3.2,0-5.1-2.6-5.1-6.4s1.9-6.4,5.1-6.4s4.7,2.6,4.7,6.4
	S155.4,30.6,152.2,30.6"/>
<path class="st5" d="M198.9,4l-7.5,3.6v3l7-2.3C198.8,6.9,199,5.5,198.9,4"/>
<path class="st5" d="M203.3,29c-1.9,1-4,1.5-6.1,1.6c-3.1,0.1-5.7-2.2-6-5.3h13.1c0.2-0.9,0.3-1.8,0.3-2.8c0-5.4-3.8-8.8-8.9-8.8
	c-6.2,0-9.7,4.9-9.7,10.5s3.6,10.5,11,10.5c2,0,4-0.4,5.9-1.2C203.2,32,203.4,30.5,203.3,29 M195.8,17.9c2.7,0,3.6,2.2,3.6,4h-8.2
	C191.8,19.6,193.2,17.9,195.8,17.9"/>
<path class="st5" d="M117,29c-1.9,1-4,1.5-6.1,1.6c-3.1,0.1-5.7-2.2-6-5.3H118c0.2-0.9,0.3-1.8,0.3-2.8c0-5.4-3.8-8.8-8.9-8.8
	c-6.2,0-9.7,4.9-9.7,10.5s3.7,10.5,11,10.5c2,0,4-0.4,5.9-1.2C117,32,117.1,30.5,117,29 M109.5,17.9c2.7,0,3.7,2.2,3.7,4H105
	C105.5,19.6,106.9,17.9,109.5,17.9"/>
<rect x="112.1" y="40.8" class="st3" width="2" height="2.2"/>
<path class="st3" d="M87.1,52.9c-0.9,0.4-1.8,0.7-2.8,0.7c-2.4,0-3.6-1.5-3.6-3.9s1.2-3.9,3.6-3.9c1,0,1.9,0.2,2.8,0.7l0.3-1.8
	c-1.1-0.5-2.2-0.7-3.4-0.6c-3.6,0-5.4,2.5-5.4,5.6s1.8,5.7,5.4,5.7c0.9,0,1.8-0.1,2.7-0.5C86.9,54.2,87.1,53.6,87.1,52.9"/>
<path class="st3" d="M105,44c-1.3,0-2.5,0.7-3.2,1.8l-0.2-1.5c-0.6,0.1-1.1,0.3-1.6,0.7v15.5h2v-6.8c0.7,1,1.8,1.5,3,1.6
	c3.2,0,4.9-2.5,4.9-5.7C109.9,46.6,108.1,43.9,105,44 M104.8,53.5c-1.2,0-2.9-1.2-2.9-3.9s1.7-3.9,2.9-3.9c1.9,0,3,1.7,3,3.9
	S106.6,53.5,104.8,53.5"/>
<path class="st3" d="M112.1,45.1v10h2V44.2C113.4,44.4,112.7,44.7,112.1,45.1"/>
<path class="st3" d="M123,45.7v-1.5h-2.9v-2.8h-2v2.8h-1.5c-0.2,0.5-0.3,1-0.3,1.5h1.8v7c0,1.4,1.1,2.5,2.5,2.6c0.1,0,0.3,0,0.4,0
	h1.8l0.2-1.6h-0.5c-2.2,0-2.3-0.1-2.3-2.2v-5.7H123z"/>
<path class="st3" d="M98.2,53.7c-1.2,0-1.2-0.7-1.2-2.3v-2.2c0-3.9-1.1-5.2-3.8-5.2c-1.3,0-2.6,0.4-3.6,1.1c0.2,0.5,0.5,0.9,0.8,1.3
	c0.7-0.4,1.5-0.6,2.3-0.6c1.5,0,2.4,0.4,2.4,2.5c-2.8,0-6.1,0.8-6.1,3.9c0,1.7,1.4,3.1,3.1,3.2c0.1,0,0.2,0,0.3,0
	c1.2,0,2.3-0.6,2.9-1.6c0.3,1.1,1.3,1.7,2.4,1.6c0.4-0.5,0.6-1,0.8-1.6L98.2,53.7z M95,52.2c-0.5,0.9-1.4,1.4-2.3,1.5
	c-0.9,0.1-1.6-0.6-1.7-1.4c0-0.1,0-0.2,0-0.2c0-1.6,1.4-2.4,4-2.4V52.2z"/>
<path class="st3" d="M134,53.7c-1.1,0-1.2-0.7-1.2-2.3v-2.2c0-3.9-1.1-5.2-3.8-5.2c-1.3,0-2.6,0.4-3.6,1.1c0.2,0.5,0.5,0.9,0.8,1.3
	c0.7-0.4,1.5-0.6,2.3-0.6c1.5,0,2.4,0.4,2.4,2.5c-2.8,0-6.1,0.8-6.1,3.9c0,1.7,1.4,3.1,3.1,3.2c0.1,0,0.2,0,0.3,0
	c1.2,0,2.3-0.6,2.9-1.6c0.3,1.1,1.3,1.7,2.4,1.6c0.4-0.5,0.6-1,0.8-1.6L134,53.7z M130.8,52.2c-0.5,0.9-1.4,1.4-2.3,1.5
	c-0.9,0.1-1.6-0.6-1.7-1.4c0-0.1,0-0.2,0-0.2c0-1.6,1.4-2.4,4-2.4L130.8,52.2z"/>
<path class="st3" d="M139.4,53.7c-1.4,0-1.6-0.4-1.6-2.2V40.8h-2v11.8c-0.1,1.4,1,2.6,2.3,2.6c0.2,0,0.3,0,0.5,0
	C138.9,54.8,139.2,54.2,139.4,53.7"/>
<rect x="112.1" y="40.8" class="st5" width="2" height="2.2"/>
<path class="st5" d="M87.1,52.9c-0.9,0.4-1.8,0.7-2.8,0.7c-2.4,0-3.6-1.5-3.6-3.9s1.2-3.9,3.6-3.9c1,0,1.9,0.2,2.8,0.7l0.3-1.8
	c-1.1-0.5-2.2-0.7-3.4-0.6c-3.6,0-5.4,2.5-5.4,5.6s1.8,5.7,5.4,5.7c0.9,0,1.8-0.1,2.7-0.5C86.9,54.2,87.1,53.6,87.1,52.9"/>
<path class="st5" d="M105,44c-1.3,0-2.5,0.7-3.2,1.8l-0.2-1.5c-0.6,0.1-1.1,0.3-1.6,0.7v15.5h2v-6.8c0.7,1,1.8,1.5,3,1.6
	c3.2,0,4.9-2.5,4.9-5.7C109.9,46.6,108.1,43.9,105,44 M104.8,53.5c-1.2,0-2.9-1.2-2.9-3.9s1.7-3.9,2.9-3.9c1.9,0,3,1.7,3,3.9
	S106.6,53.5,104.8,53.5"/>
<path class="st5" d="M112.1,45.1v10h2V44.2C113.4,44.4,112.7,44.7,112.1,45.1"/>
<path class="st5" d="M123,45.7v-1.5h-2.9v-2.8h-2v2.8h-1.5c-0.2,0.5-0.3,1-0.3,1.5h1.8v7c0,1.4,1.1,2.5,2.5,2.6c0.1,0,0.3,0,0.4,0
	h1.8l0.2-1.6h-0.5c-2.2,0-2.3-0.1-2.3-2.2v-5.7H123z"/>
<path class="st5" d="M98.2,53.7c-1.2,0-1.2-0.7-1.2-2.3v-2.2c0-3.9-1.1-5.2-3.8-5.2c-1.3,0-2.6,0.4-3.6,1.1c0.2,0.5,0.5,0.9,0.8,1.3
	c0.7-0.4,1.5-0.6,2.3-0.6c1.5,0,2.4,0.4,2.4,2.5c-2.8,0-6.1,0.8-6.1,3.9c0,1.7,1.4,3.1,3.1,3.2c0.1,0,0.2,0,0.3,0
	c1.2,0,2.3-0.6,2.9-1.6c0.3,1.1,1.3,1.7,2.4,1.6c0.4-0.5,0.6-1,0.8-1.6L98.2,53.7z M95,52.2c-0.5,0.9-1.4,1.4-2.3,1.5
	c-0.9,0.1-1.6-0.6-1.7-1.4c0-0.1,0-0.2,0-0.2c0-1.6,1.4-2.4,4-2.4V52.2z"/>
<path class="st5" d="M134,53.7c-1.1,0-1.2-0.7-1.2-2.3v-2.2c0-3.9-1.1-5.2-3.8-5.2c-1.3,0-2.6,0.4-3.6,1.1c0.2,0.5,0.5,0.9,0.8,1.3
	c0.7-0.4,1.5-0.6,2.3-0.6c1.5,0,2.4,0.4,2.4,2.5c-2.8,0-6.1,0.8-6.1,3.9c0,1.7,1.4,3.1,3.1,3.2c0.1,0,0.2,0,0.3,0
	c1.2,0,2.3-0.6,2.9-1.6c0.3,1.1,1.3,1.7,2.4,1.6c0.4-0.5,0.6-1,0.8-1.6L134,53.7z M130.8,52.2c-0.5,0.9-1.4,1.4-2.3,1.5
	c-0.9,0.1-1.6-0.6-1.7-1.4c0-0.1,0-0.2,0-0.2c0-1.6,1.4-2.4,4-2.4L130.8,52.2z"/>
<path class="st5" d="M139.4,53.7c-1.4,0-1.6-0.4-1.6-2.2V40.8h-2v11.8c-0.1,1.4,1,2.6,2.3,2.6c0.2,0,0.3,0,0.5,0
	C138.9,54.8,139.2,54.2,139.4,53.7"/>
</svg>
